<svg width="72" height="72" viewBox="0 0 72 72" fill="none" xmlns="http://www.w3.org/2000/svg">
<path fill-rule="evenodd" clip-rule="evenodd" d="M12.9716 23.6198L2 29.7591H6V60H67V29.7591H70.5983L36.2004 11L20.484 19.5133L22.9549 18.1625V11H12.9716V23.6198Z" fill="white"/>
<path d="M2 29.7591L12.9716 23.6198V11H22.9549V18.1625L20.484 19.5133L36.2004 11L70.5983 29.7591" stroke="black" stroke-width="1.83018"/>
<path d="M3.97852 31.9997L36.2014 14.6733L68.6232 31.9997" stroke="black" stroke-width="0.457545"/>
<path d="M16.7612 53.9998V30.7271H32.9885V35.2952H22.3862V40.068H32.159V44.6475H22.3862V49.4316H32.9885V53.9998H16.7612Z" fill="black"/>
<path d="M44.7499 53.9998H37.568V30.7271H45.068C47.3256 30.7271 49.2574 31.193 50.8635 32.1248C52.4696 33.049 53.7006 34.3786 54.5567 36.1134C55.4127 37.8407 55.8408 39.9089 55.8408 42.318C55.8408 44.7422 55.409 46.8293 54.5453 48.5793C53.6817 50.3217 52.4241 51.6627 50.7726 52.6021C49.1211 53.5339 47.1135 53.9998 44.7499 53.9998ZM40.3862 51.4998H44.568C46.4923 51.4998 48.087 51.1286 49.3521 50.3861C50.6173 49.6437 51.5605 48.5869 52.1817 47.2157C52.8029 45.8445 53.1135 44.2119 53.1135 42.318C53.1135 40.4392 52.8067 38.8217 52.1931 37.4657C51.5794 36.1021 50.6627 35.0566 49.4431 34.3293C48.2234 33.5945 46.7044 33.2271 44.8862 33.2271H40.3862V51.4998Z" fill="black"/>
</svg>
