<svg xmlns="http://www.w3.org/2000/svg" fill="none" viewBox="0 0 166 45">
	<path
		fill="currentColor"
		d="M1.27 44.55v-21.3h13.91v3.24H5.15v5.78h9.31v3.23H5.15v5.82h10.11v3.23H1.27Zm29.48-15.44a2.8 2.8 0 0 0-1.23-2.12 4.75 4.75 0 0 0-2.8-.76c-.8 0-1.5.12-2.07.36-.58.24-1.02.57-1.33.99a2.4 2.4 0 0 0-.17 2.58c.21.32.5.6.85.83.35.22.75.41 1.18.56.43.15.87.28 1.3.39l2 .5c.82.18 1.6.44 2.34.76.72.3 1.4.7 2.01 1.2a5.26 5.26 0 0 1 1.95 4.17 5.76 5.76 0 0 1-3.74 5.51c-1.2.53-2.67.8-4.38.8-1.66 0-3.1-.26-4.33-.78a6.45 6.45 0 0 1-2.86-2.24 6.63 6.63 0 0 1-1.11-3.6h3.81c.06.74.29 1.36.7 1.85.4.5.92.86 1.57 1.1.65.24 1.38.37 2.19.37.84 0 1.58-.13 2.21-.38a3.6 3.6 0 0 0 1.5-1.06c.37-.46.55-.99.56-1.6a2 2 0 0 0-.49-1.37 3.6 3.6 0 0 0-1.35-.92c-.57-.25-1.24-.47-2-.66l-2.43-.63a9.8 9.8 0 0 1-4.18-2.05 4.72 4.72 0 0 1-1.53-3.67c0-1.25.35-2.35 1.03-3.3a6.76 6.76 0 0 1 2.8-2.19 9.79 9.79 0 0 1 4.03-.79c1.51 0 2.84.27 3.99.8a6.5 6.5 0 0 1 2.7 2.17c.65.92 1 1.98 1.01 3.18h-3.72Zm6.54-2.62v-3.24h17.06v3.24h-6.6v18.06H43.9V26.5h-6.61ZM57.8 44.55h-4.13l7.53-21.3h4.78l7.54 21.3h-4.14l-5.7-16.93h-.18l-5.7 16.93Zm.14-8.35h11.28v3.1H57.94v-3.1Zm14.86-9.7v-3.24h17.06v3.24h-6.6v18.06h-3.85V26.5h-6.6Zm20.35 18.06v-21.3h13.91v3.24H97.04v5.78h9.31v3.23h-9.31v5.82h10.12v3.23h-14Zm24.7 0h-5.6v-21.3h6.14a9.6 9.6 0 0 1 5.05 1.27 8.16 8.16 0 0 1 3.23 3.62 12.99 12.99 0 0 1 1.11 5.68c0 2.27-.4 4.2-1.19 5.8a8.3 8.3 0 0 1-3.39 3.66 10.6 10.6 0 0 1-5.36 1.27Zm-4.94-.66h4.93c1.98 0 3.66-.4 5.05-1.2a7.75 7.75 0 0 0 3.15-3.46c.73-1.5 1.08-3.31 1.08-5.41a12.61 12.61 0 0 0-1.05-5.32 7.54 7.54 0 0 0-2.96-3.4 8.9 8.9 0 0 0-4.72-1.18h-5.48V43.9Zm17.68.66h-.7l7.63-21.3h.92l7.65 21.3h-.71l-7.35-20.46h-.09l-7.35 20.46Zm2.42-7.86h9.94v.66h-9.94v-.66Zm32.87-2.79c0 2.17-.38 4.08-1.12 5.72a9.17 9.17 0 0 1-3.11 3.85 7.96 7.96 0 0 1-4.63 1.37c-1.76 0-3.3-.46-4.63-1.38a9.15 9.15 0 0 1-3.12-3.85 13.81 13.81 0 0 1-1.1-5.7c0-2.18.37-4.08 1.11-5.72a9.16 9.16 0 0 1 3.12-3.84 7.92 7.92 0 0 1 4.62-1.39c1.75 0 3.3.46 4.63 1.39a9.1 9.1 0 0 1 3.1 3.83 13.73 13.73 0 0 1 1.13 5.72Zm-.67 0c0-2.04-.35-3.82-1.04-5.36a8.49 8.49 0 0 0-2.88-3.61 7.2 7.2 0 0 0-4.27-1.3c-1.61 0-3.04.43-4.27 1.29a8.51 8.51 0 0 0-2.88 3.6 13.06 13.06 0 0 0-1.04 5.38c0 2.03.34 3.81 1.03 5.36a8.6 8.6 0 0 0 2.86 3.62 7.29 7.29 0 0 0 4.3 1.3 7.3 7.3 0 0 0 4.28-1.3 8.57 8.57 0 0 0 2.88-3.6 12.97 12.97 0 0 0 1.03-5.38Z"
	/>
	<path
		stroke="currentColor"
		stroke-width="1.83"
		d="M1 18.35 12.02 13V2h10.03v6.24l-2.48 1.18L35.36 2l34.56 16.35"
	/>
	<path stroke="currentColor" stroke-width=".46" d="M2.99 20.3 35.36 5.2l32.57 15.1" />
</svg>
